<svg width="960" height="1080" viewBox="0 0 960 1080" fill="none" xmlns="http://www.w3.org/2000/svg">
<g clip-path="url(#clip0_2_237)">
<g clip-path="url(#clip1_2_237)">
<rect width="960" height="1080" fill="#5856D6" fill-opacity="0.2"/>
<path d="M887.232 643.488C929.323 718.81 868.416 866.592 482.137 763.886C288.463 712.391 143.795 828.395 113.983 747.424C44.5437 558.816 328.128 340.64 485.824 492.96C629.966 632.188 810.624 506.4 887.232 643.488Z" stroke="#E4E4E4" stroke-width="1.344" stroke-miterlimit="10" stroke-dasharray="10.78 10.78"/>
<path d="M885.014 809.285H97.4033C122.052 627.173 288.95 486.309 491.209 486.309C693.454 486.309 860.365 627.173 885.014 809.285Z" fill="#F6F5F5"/>
<path d="M782.348 807.683H486.103C472.311 807.683 461.13 796.503 461.13 782.71V357.769C461.13 343.977 472.311 332.796 486.103 332.796H782.348C796.14 332.796 807.321 343.977 807.321 357.769V782.711C807.321 796.503 796.141 807.683 782.348 807.683Z" fill="#A9BAE6"/>
<path d="M777.36 351.934H492.418V765.846H777.36V351.934Z" fill="#F6F5F5"/>
<path d="M777.36 351.936C777.449 513.339 782.659 708 764.529 751.099C684.673 758.879 591.169 761.377 492.415 761.841L529.953 353.184L777.36 351.936Z" fill="#E4E4E4"/>
<path d="M751.767 738.057C627.299 757.977 544.11 759.027 476.641 754.017C485.384 660.944 488.889 506.326 492.414 351.956L642.401 352.288L778.145 361.249C780.123 521.469 780.339 669.467 751.767 738.057Z" fill="white"/>
<path d="M707.776 393.609L557.883 390.085L557.346 412.917L707.239 416.441L707.776 393.609Z" fill="#708CD5"/>
<path d="M736.674 449.479L601.471 446.301L601.225 456.752L736.428 459.93L736.674 449.479Z" fill="#708CD5"/>
<path d="M692.835 471.247L600.935 469.087L600.69 479.538L692.589 481.698L692.835 471.247Z" fill="#D3DFFF"/>
<path d="M558.868 445.915L526.861 445.162L526.108 477.17L558.116 477.922L558.868 445.915Z" fill="white" stroke="#708CD5" stroke-width="2.016" stroke-miterlimit="10"/>
<path d="M532.084 453.606C533.072 457.389 534.897 473.237 542.833 468.805C544.663 467.784 546.213 465.082 547.582 463.528C550.043 460.734 552.503 457.94 554.965 455.146C559.886 449.558 564.808 443.97 569.73 438.381C570.991 436.949 565.422 433.357 563.838 435.155C559.463 440.122 555.088 445.089 550.714 450.057C548.526 452.54 546.338 455.024 544.151 457.507C542.633 459.231 539.123 464.79 536.87 465.283C538.095 465.679 539.32 466.074 540.545 466.47C541.41 467.18 539.802 462.145 539.766 462.009C539.156 459.672 538.545 457.334 537.935 454.997C537.43 453.066 531.336 450.745 532.084 453.606Z" fill="#EE6F57"/>
<path d="M711.44 507.109L600.103 504.492L599.857 514.943L711.194 517.56L711.44 507.109Z" fill="#708CD5"/>
<path d="M734.77 530.457L599.567 527.278L599.321 537.729L734.524 540.907L734.77 530.457Z" fill="#D3DFFF"/>
<path d="M557.5 504.106L525.493 503.353L524.741 535.361L556.748 536.113L557.5 504.106Z" fill="white" stroke="#708CD5" stroke-width="2.016" stroke-miterlimit="10"/>
<path d="M530.693 512.701C531.681 516.484 533.506 532.332 541.442 527.9C543.272 526.879 544.822 524.177 546.191 522.623C548.651 519.829 551.112 517.035 553.573 514.241C558.495 508.653 563.417 503.065 568.339 497.476C569.6 496.044 564.031 492.452 562.447 494.25C558.072 499.217 553.697 504.184 549.322 509.152C547.135 511.635 544.947 514.119 542.76 516.602C541.241 518.326 537.731 523.885 535.479 524.378C536.703 524.773 537.928 525.169 539.153 525.565C540.019 526.275 538.41 521.24 538.375 521.104C537.764 518.766 537.154 516.429 536.544 514.092C536.039 512.161 529.945 509.84 530.693 512.701Z" fill="#EE6F57"/>
<path d="M733.938 565.861L598.735 562.683L598.489 573.133L733.692 576.311L733.938 565.861Z" fill="#708CD5"/>
<path d="M658.664 586.891L598.199 585.469L597.954 595.92L658.419 597.341L658.664 586.891Z" fill="#D3DFFF"/>
<path d="M556.133 562.296L524.125 561.544L523.373 593.551L555.38 594.304L556.133 562.296Z" fill="white" stroke="#708CD5" stroke-width="2.016" stroke-miterlimit="10"/>
<path d="M529.758 571.306C530.746 575.09 532.571 590.937 540.507 586.506C542.337 585.484 543.887 582.782 545.255 581.228C547.716 578.434 550.177 575.64 552.638 572.846C557.56 567.258 562.482 561.67 567.404 556.082C568.665 554.65 563.096 551.058 561.512 552.855C557.137 557.822 552.762 562.79 548.387 567.757C546.2 570.241 544.012 572.724 541.825 575.208C540.307 576.931 536.797 582.491 534.544 582.983C535.769 583.379 536.994 583.775 538.218 584.17C539.084 584.881 537.476 579.846 537.44 579.709C536.83 577.372 536.219 575.034 535.609 572.697C535.104 570.767 529.01 568.445 529.758 571.306Z" fill="#EE6F57"/>
<path d="M732.57 624.052L597.367 620.874L597.122 631.324L732.325 634.502L732.57 624.052Z" fill="#708CD5"/>
<path d="M703.637 646.171L596.832 643.66L596.586 654.11L703.391 656.621L703.637 646.171Z" fill="#D3DFFF"/>
<path d="M554.765 620.487L522.757 619.735L522.005 651.742L554.012 652.495L554.765 620.487Z" fill="white" stroke="#708CD5" stroke-width="2.016" stroke-miterlimit="10"/>
<path d="M528.397 629.117C529.385 632.9 531.21 648.748 539.146 644.316C540.976 643.294 542.526 640.593 543.895 639.039C546.356 636.245 548.817 633.451 551.278 630.656C556.2 625.068 561.122 619.48 566.043 613.892C567.305 612.46 561.735 608.868 560.152 610.666C555.777 615.633 551.401 620.6 547.027 625.567C544.839 628.051 542.652 630.535 540.464 633.018C538.946 634.742 535.436 640.301 533.183 640.794C534.408 641.189 535.633 641.585 536.858 641.981C537.723 642.691 536.115 637.656 536.08 637.52C535.469 635.182 534.859 632.845 534.248 630.508C533.744 628.577 527.65 626.256 528.397 629.117Z" fill="#EE6F57"/>
<path d="M649.604 679.885L596.01 678.625L595.764 689.075L649.358 690.335L649.604 679.885Z" fill="#708CD5"/>
<path d="M730.68 704.622L595.474 701.44L595.229 711.891C647.538 713.118 714.142 715.569 727.732 713.484C729.795 711.138 730.908 708.257 730.68 704.622Z" fill="#D3DFFF"/>
<path d="M553.855 678.248L521.847 677.496L521.095 709.503L553.102 710.256L553.855 678.248Z" fill="white" stroke="#708CD5" stroke-width="2.016" stroke-miterlimit="10"/>
<path d="M527.048 686.421C528.036 690.204 529.862 706.052 537.798 701.62C539.627 700.599 541.177 697.897 542.546 696.343C545.007 693.549 547.468 690.755 549.929 687.961C554.851 682.373 559.773 676.785 564.695 671.196C565.956 669.764 560.387 666.172 558.803 667.97C554.428 672.937 550.053 677.905 545.678 682.872C543.491 685.355 541.303 687.839 539.116 690.322C537.597 692.046 534.087 697.605 531.835 698.098C533.059 698.494 534.284 698.889 535.509 699.285C536.375 699.995 534.767 694.961 534.731 694.824C534.12 692.487 533.51 690.149 532.9 687.812C532.395 685.881 526.301 683.56 527.048 686.421Z" fill="#EE6F57"/>
<path d="M698.4 335.672V367.619H570.048V335.672C570.048 330.578 572.118 325.968 575.451 322.621C575.867 322.205 576.297 321.815 576.754 321.452C579.94 318.804 584.039 317.219 588.501 317.219C591.848 317.219 595.06 316.452 597.936 315.068C599.186 314.463 600.369 313.751 601.484 312.931C605.153 310.216 607.962 306.359 609.36 301.763C610.784 297.072 613.701 293.148 617.478 290.419C621.106 287.812 625.528 286.307 630.219 286.307H638.229C642.92 286.307 647.341 287.812 650.97 290.419C654.747 293.148 657.663 297.072 659.088 301.763C660.486 306.359 663.295 310.216 666.964 312.931C668.079 313.751 669.262 314.463 670.512 315.068C673.388 316.452 676.6 317.219 679.947 317.219C684.409 317.219 688.508 318.804 691.693 321.452C695.792 324.826 698.4 329.946 698.4 335.672Z" fill="#EE6F57"/>
<path d="M708.816 351.934V375.683H559.632V351.934H570.048V367.619H698.4V351.934H708.816Z" fill="#E4E4E4"/>
<path d="M634.226 316.276C640.514 316.276 645.611 311.432 645.611 305.456C645.611 299.48 640.514 294.636 634.226 294.636C627.938 294.636 622.841 299.48 622.841 305.456C622.841 311.432 627.938 316.276 634.226 316.276Z" fill="white"/>
<path d="M388.246 455.022C383.693 454.161 379.438 446.554 377.959 443.638C377.596 442.922 377.483 442.112 377.632 441.323L379.444 431.72C379.444 431.72 383.624 432.431 383.301 437.998C383.268 438.576 383.386 439.153 383.592 439.693L385.193 443.88L389.924 440.217L387.33 432.891C387.33 432.891 383.858 433.845 382.064 433.273C378.383 432.098 383.209 429.228 384.735 428.923C386.262 428.617 389.619 427.396 391.146 429.991C392.672 432.586 393.588 434.112 393.588 434.112C393.588 434.112 395.267 428.312 394.122 415.339C394.071 414.755 395.533 414.767 395.944 415.185C397.173 416.436 399.131 420.244 399.235 431.823C399.235 431.823 399.44 418.329 401.754 416.941C403.661 415.797 404.625 422.401 403.281 433.601C403.281 433.601 405.772 423.903 407.554 423.886C410.561 423.857 407.593 449.785 400.033 457.513L388.246 455.022Z" fill="#F9B384"/>
<path d="M402.519 451.054C402.385 452.344 402.237 453.594 402.076 454.804V454.817C401.538 459.118 400.866 462.962 400.087 466.255C400.046 466.416 400.019 466.564 399.979 466.712C397.681 476.133 397.264 480.743 389.415 479.507L381.338 470.314L381.257 470.22L380.666 469.548L382.305 464.709L382.52 464.077L383.73 460.556L383.878 460.099L385.948 454.038L386.781 451.578L402.519 451.054Z" fill="#F9B384"/>
<path d="M252.457 785.798L250.401 792.224C236.303 796.855 228.08 802.162 227.553 808.352H268.321L271.589 786.837C263.332 788.851 256.716 787.449 252.457 785.798Z" fill="#1F3C88"/>
<path d="M257.569 769.824L252.458 785.798C256.716 787.449 263.332 788.851 271.589 786.836L273.697 772.96L257.569 769.824Z" fill="#F9B384"/>
<path d="M327.269 785.086L328.465 768.816L309.313 769.824L308.266 784.823C316.375 787.407 323.077 786.396 327.269 785.086Z" fill="#F9B384"/>
<path d="M350.305 808.352C349.778 802.162 342.577 793.68 326.785 791.664L327.269 785.086C323.077 786.396 316.375 787.407 308.267 784.823L306.625 808.352H350.305Z" fill="#1F3C88"/>
<path d="M311.745 459.199L288.642 459.36V424.416H311.047L311.06 426.553L311.168 437.628L311.329 455.409L311.745 459.199Z" fill="#F9B384"/>
<path d="M311.168 439.308C307.015 443.676 296.182 438.743 291.612 433.932L311.06 428.233L311.168 439.308Z" fill="#E28B6D"/>
<path d="M316.53 416.352C316.517 418.932 316.355 421.634 315.925 424.214C314.796 431.257 311.813 437.345 304.931 437.533C288.669 438.004 284.032 428.703 280.968 421.096C277.904 413.476 282.876 395.157 282.876 395.157L303.923 393.074L315.482 402.549C315.482 402.549 316.597 408.987 316.53 416.352Z" fill="#F9B384"/>
<path d="M281.623 416.74C281.623 416.74 286.263 416.526 287.056 404.55C295.352 407.327 301.415 404.795 306.218 399.27C310.317 404.684 321.79 406.379 325.665 395.296C328.465 387.288 320.737 375.36 309.481 382.584C298.45 377.011 281.718 377.393 276.903 391.064C276.903 391.064 260.164 398.782 277.888 415.774C278.243 416.114 281.623 416.74 281.623 416.74Z" fill="#102048"/>
<path d="M345.603 584.789L332.833 777.888H302.817L310.321 590.512L314.913 588.384L345.603 584.789Z" fill="#102048"/>
<path d="M267.425 558.368L246.369 777.888H279.073L310.209 595.552L345.601 584.8L347.169 545.824L268.321 544.032L267.425 558.368Z" fill="#1F3C88"/>
<path opacity="0.6" d="M272.12 558.847C289.983 565.26 331.893 557.931 340.595 549L334.412 536.633L265.478 545.794L272.12 558.847Z" fill="#102048"/>
<path d="M338.988 546.021C338.411 546.263 337.819 546.518 337.214 546.747C330.535 549.462 322.928 551.841 314.823 553.413C309.985 554.367 304.945 555.012 299.811 555.254C292.069 555.644 284.113 555.133 276.237 553.346L286.25 459.992L287.473 448.608C287.473 448.608 300.577 464.736 315.025 446.928L338.988 546.021Z" fill="white"/>
<path opacity="0.3" d="M299.811 555.254C292.069 555.644 284.113 555.133 276.237 553.346L286.25 459.992L289.825 454.824C298.655 476.301 307.7 523.859 299.811 555.254Z" fill="#1F3C88"/>
<path d="M288.649 444.912C298.604 487.181 302.701 530.677 288.033 578.976C277.156 583.114 265.313 583.067 252.641 579.424L255.777 491.616L181.969 542.352L177.489 514.688C205.861 487.559 254.917 446.575 288.649 444.912Z" fill="#708CD5"/>
<path opacity="0.3" d="M337.214 546.747C330.535 549.462 322.928 551.841 314.823 553.413C310.375 527.904 309.394 485.998 313.009 467.088L337.214 546.747Z" fill="#1F3C88"/>
<path opacity="0.6" d="M400.087 466.255C400.046 466.416 400.02 466.564 399.979 466.712C397.681 476.133 397.264 480.743 389.415 479.507L381.338 470.314L381.257 470.22L382.306 464.709L382.521 464.077L383.73 460.556L383.878 460.099L400.087 466.255Z" fill="#E28B6D"/>
<path d="M398.689 474.816C398.689 474.816 378.865 516.816 367.105 517.824C355.704 518.801 350.305 507.744 350.305 507.744L358.369 569.124C348.894 573.56 338.558 575.723 326.556 573.6C315.899 538.992 311.87 494.243 311.077 444.408C319.705 444.946 336.794 445.683 342.913 449.616C353.889 456.672 367.441 481.872 367.441 481.872L383.233 460.368L398.689 474.816Z" fill="#708CD5"/>
<path d="M157.018 415.638C157.018 415.638 158.218 395.546 160.263 396.494C162.307 397.442 166.409 414.913 166.409 414.913L162.024 421.989L157.018 415.638Z" fill="#6F3428"/>
<path d="M217.349 778.448L217.943 785.061C218.991 796.733 210.378 807.048 198.705 808.097L197.005 808.249C185.332 809.298 175.018 800.684 173.969 789.011L173.375 782.399L217.349 778.448Z" fill="#EE6F57"/>
<path d="M188.588 458.252L144.615 462.204L173.387 782.403L217.361 778.451L188.588 458.252Z" fill="#FBC343"/>
<path opacity="0.3" d="M173.829 453.106L158.212 454.509L183.432 735.174L199.049 733.771L173.829 453.106Z" stroke="#6F3428" stroke-width="2.688" stroke-miterlimit="10"/>
<path d="M217.343 778.452L173.381 782.404L172.225 769.501L171.419 760.537L168.932 732.985L212.908 729.034L215.381 756.586L216.187 765.55L217.343 778.452Z" fill="#102048"/>
<path d="M215.373 756.599L171.411 760.549L172.216 769.514L216.179 765.563L215.373 756.599Z" fill="#FBC343"/>
<path d="M144.602 462.205L156.817 413.252C156.817 413.252 161.033 415.123 166.147 411.964L188.579 458.254L144.602 462.205Z" fill="#EE6F57"/>
<path d="M284.056 414.713C283.86 413.991 280.578 412.999 279.855 412.799C278.737 412.49 277.518 412.338 276.428 412.831C272.459 414.624 272.989 420.307 275.045 423.293C276.21 424.985 277.915 426.287 279.899 426.855C280.62 427.061 287.446 427.143 287.147 426.046C287.146 426.041 284.063 414.738 284.056 414.713Z" fill="#F9B384"/>
<path d="M159.121 528.912C158.089 525.675 154.696 523.858 151.485 524.967C146.482 526.694 142.125 529.625 141.45 534.609C140.836 539.149 143.106 553.65 153.247 555.512L152.419 548.062C152.419 548.062 158.628 546.613 159.87 543.923C160.739 542.039 160.797 534.172 159.121 528.912Z" fill="#F9B384"/>
<path d="M347.206 479.042C347.739 482.215 348.193 485.397 348.628 488.582C349.079 491.765 349.437 494.959 349.846 498.147L350.888 507.732C351.192 510.932 351.489 514.133 351.686 517.346L351.164 517.407C350.614 514.235 350.165 511.052 349.722 507.868L348.524 498.301C348.186 495.105 347.797 491.915 347.501 488.714C347.19 485.515 346.897 482.313 346.684 479.103L347.206 479.042Z" fill="#1F3C88"/>
<path d="M256.823 478.524C256.816 482.088 256.729 485.648 256.624 489.207C256.534 492.766 256.35 496.322 256.218 499.88L255.635 510.544C255.397 514.096 255.153 517.649 254.807 521.196L254.282 521.172C254.273 517.607 254.364 514.048 254.463 510.488L254.888 499.816C255.092 496.262 255.244 492.705 255.49 489.153C255.72 485.6 255.969 482.048 256.298 478.5L256.823 478.524Z" fill="#1F3C88"/>
<path d="M300.367 414.379C300.651 415.647 300.129 416.843 299.201 417.051C298.273 417.259 297.291 416.4 297.007 415.132C296.723 413.865 297.244 412.669 298.172 412.461C299.101 412.253 300.083 413.112 300.367 414.379Z" fill="#102048"/>
<path d="M313.763 412.813C313.708 414.111 312.893 415.13 311.943 415.09C310.993 415.05 310.267 413.965 310.322 412.667C310.377 411.369 311.192 410.35 312.142 410.39C313.093 410.43 313.818 411.515 313.763 412.813Z" fill="#102048"/>
<path d="M306.294 413.877C306.754 414.988 306.681 416.185 306.979 417.096C307.13 417.556 307.34 417.961 307.629 418.213C307.899 418.459 308.336 418.619 308.89 418.833C309.462 419.054 310.068 419.448 310.483 420.033C310.923 420.602 311.044 421.588 310.646 422.232C310.289 422.878 309.774 423.232 309.333 423.561C308.871 423.871 308.428 424.202 307.949 424.493L307.604 424.097C307.956 423.662 308.344 423.267 308.715 422.852C309.097 422.459 309.448 422.075 309.583 421.721C309.868 421.099 309.258 420.419 308.376 420.068C307.921 419.86 307.267 419.678 306.738 419.137C306.228 418.617 305.976 417.967 305.875 417.36C305.653 416.115 305.907 415.05 305.786 414.014L306.294 413.877Z" fill="#E28B6D"/>
<path d="M293.955 410.977C294.153 410.179 294.639 409.425 295.326 408.881C296.003 408.319 296.887 408.015 297.763 407.969C299.527 407.863 301.275 408.867 302 410.35L301.589 410.677C300.422 409.761 299.137 409.258 297.827 409.305C296.514 409.34 295.322 410.016 294.431 411.199L293.955 410.977Z" fill="#102048"/>
<path d="M307.826 409.331C308.025 408.708 308.374 408.118 308.881 407.633C309.377 407.135 310.07 406.807 310.789 406.689C312.233 406.45 313.784 407.184 314.353 408.466L313.933 408.782C312.987 408.147 311.958 407.878 310.987 408.011C310.5 408.077 310.039 408.259 309.583 408.525C309.134 408.804 308.726 409.186 308.279 409.598L307.826 409.331Z" fill="#102048"/>
<path d="M300.392 426.893C302.738 430.566 305.865 430.966 308.28 427.1L300.392 426.893Z" fill="white"/>
<path opacity="0.4" d="M316.593 415.456C316.579 418.036 316.355 421.634 315.925 424.214C314.299 423.69 313.116 422.171 313.116 420.357C313.116 418.328 314.671 415.765 316.593 415.456Z" fill="#FC8879"/>
<path opacity="0.4" d="M294.663 427.092C297.057 427.092 298.997 425.152 298.997 422.758C298.997 420.365 297.057 418.424 294.663 418.424C292.269 418.424 290.329 420.365 290.329 422.758C290.329 425.152 292.269 427.092 294.663 427.092Z" fill="#FC8879"/>
<path d="M281.216 419.031C280.359 418.45 279.574 417.813 278.792 417.436C278.405 417.245 278.044 417.13 277.723 417.158C277.399 417.181 277.025 417.372 276.605 417.671L276.164 417.386C276.347 416.849 276.732 416.246 277.441 416.012C278.144 415.769 278.858 415.965 279.385 416.237C280.456 416.821 281.188 417.683 281.634 418.713L281.216 419.031Z" fill="#E28B6D"/>
<path opacity="0.6" d="M159.87 543.922L153.632 562.876L152.344 548.064C156.22 547.22 158.337 545.668 159.87 543.922Z" fill="#6F3428"/>
<path d="M56.7827 808.475H925.635" stroke="#102048" stroke-width="2.688" stroke-miterlimit="10"/>
</g>
</g>
<defs>
<clipPath id="clip0_2_237">
<rect width="960" height="1080" fill="white"/>
</clipPath>
<clipPath id="clip1_2_237">
<rect width="960" height="1080" fill="white"/>
</clipPath>
</defs>
</svg>
